<svg width="130" height="84" viewBox="0 0 130 84" fill="none" xmlns="http://www.w3.org/2000/svg">
<g clip-path="url(#clip0_128_64)">
<path d="M45.5 17.4531C45.5 18.9688 45.2734 20.3125 44.8203 21.4844C44.3672 22.6562 43.7422 23.6797 42.9453 24.5547C42.1641 25.4297 41.2422 26.1719 40.1797 26.7812C39.1172 27.3906 37.9766 27.8906 36.7578 28.2812C35.5547 28.6562 34.3047 28.9375 33.0078 29.125C31.7109 29.2969 30.4375 29.3906 29.1875 29.4062V40.3281H18.2656C18.2656 36.75 18.2734 33.1875 18.2891 29.6406C18.3047 26.0938 18.3281 22.5156 18.3594 18.9062C18.3906 17 18.3984 15.0937 18.3828 13.1875C18.3672 11.2813 18.4062 9.35938 18.5 7.42188C20.5 6.82813 22.5 6.38281 24.5 6.08594C26.5 5.78906 28.5625 5.64062 30.6875 5.64062C31.8906 5.64062 33.0938 5.74219 34.2969 5.94531C35.5 6.13281 36.6484 6.4375 37.7422 6.85938C38.8516 7.28125 39.875 7.8125 40.8125 8.45312C41.7656 9.07813 42.5859 9.82813 43.2734 10.7031C43.9609 11.5781 44.5 12.5781 44.8906 13.7031C45.2969 14.8125 45.5 16.0625 45.5 17.4531ZM35.0938 18.25C35.0938 17.2344 34.7812 16.4453 34.1562 15.8828C33.5469 15.3047 32.75 15.0156 31.7656 15.0156C31.4375 15.0156 31.0938 15.0469 30.7344 15.1094C30.3906 15.1562 30.0625 15.2188 29.75 15.2969L29.4688 22.1406C29.6875 22.1719 29.8984 22.1875 30.1016 22.1875C30.3047 22.1875 30.5156 22.1875 30.7344 22.1875C31.2969 22.1875 31.8359 22.0938 32.3516 21.9062C32.8828 21.7188 33.3516 21.4531 33.7578 21.1094C34.1641 20.75 34.4844 20.3359 34.7188 19.8672C34.9688 19.3828 35.0938 18.8438 35.0938 18.25ZM72.6594 37.9844L61.0344 39.4844L59.6281 34.1875H54.2844L53.1125 39.4844L41.1594 38.3125L50.4875 7.09375L63.5187 6.4375L72.6594 37.9844ZM58.7844 27.0156L57.0031 18.8594L55.2687 27.0156H58.7844ZM112.592 7.46875L107.108 39.0156L93.7953 39.2969L90.9359 23.4062L88.0766 38.0781L74.7641 38.5469L69.2328 8.40625L80.8578 7.375L83.2016 25.8906L86.3422 8.78125H95.4828L99.1391 26.125L101.014 6.4375L112.592 7.46875Z" fill="#333333"/>
<path d="M28.5 54.4531C28.5 55.9688 28.2734 57.3125 27.8203 58.4844C27.3672 59.6562 26.7422 60.6797 25.9453 61.5547C25.1641 62.4297 24.2422 63.1719 23.1797 63.7812C22.1172 64.3906 20.9766 64.8906 19.7578 65.2812C18.5547 65.6562 17.3047 65.9375 16.0078 66.125C14.7109 66.2969 13.4375 66.3906 12.1875 66.4062V77.3281H1.26562C1.26562 73.75 1.27344 70.1875 1.28906 66.6406C1.30469 63.0938 1.32812 59.5156 1.35938 55.9062C1.39062 54 1.39844 52.0938 1.38281 50.1875C1.36719 48.2812 1.40625 46.3594 1.5 44.4219C3.5 43.8281 5.5 43.3828 7.5 43.0859C9.5 42.7891 11.5625 42.6406 13.6875 42.6406C14.8906 42.6406 16.0938 42.7422 17.2969 42.9453C18.5 43.1328 19.6484 43.4375 20.7422 43.8594C21.8516 44.2812 22.875 44.8125 23.8125 45.4531C24.7656 46.0781 25.5859 46.8281 26.2734 47.7031C26.9609 48.5781 27.5 49.5781 27.8906 50.7031C28.2969 51.8125 28.5 53.0625 28.5 54.4531ZM18.0938 55.25C18.0938 54.2344 17.7812 53.4453 17.1562 52.8828C16.5469 52.3047 15.75 52.0156 14.7656 52.0156C14.4375 52.0156 14.0938 52.0469 13.7344 52.1094C13.3906 52.1562 13.0625 52.2188 12.75 52.2969L12.4688 59.1406C12.6875 59.1719 12.8984 59.1875 13.1016 59.1875C13.3047 59.1875 13.5156 59.1875 13.7344 59.1875C14.2969 59.1875 14.8359 59.0938 15.3516 58.9062C15.8828 58.7188 16.3516 58.4531 16.7578 58.1094C17.1641 57.75 17.4844 57.3359 17.7188 56.8672C17.9688 56.3828 18.0938 55.8438 18.0938 55.25Z" fill="#333333"/>
<path d="M44 77C52.2843 77 59 70.2843 59 62C59 53.7157 52.2843 47 44 47C35.7157 47 29 53.7157 29 62C29 70.2843 35.7157 77 44 77Z" fill="#333333"/>
<path d="M44.0004 67C46.2386 67 48.053 65.7208 48.053 64.1429C48.053 62.5649 46.2386 61.2857 44.0004 61.2857C41.7622 61.2857 39.9478 62.5649 39.9478 64.1429C39.9478 65.7208 41.7622 67 44.0004 67Z" fill="#FFD6C0"/>
<path d="M41.7896 61.2857C42.807 61.2857 43.6317 60.3263 43.6317 59.1429C43.6317 57.9594 42.807 57 41.7896 57C40.7722 57 39.9475 57.9594 39.9475 59.1429C39.9475 60.3263 40.7722 61.2857 41.7896 61.2857Z" fill="#FFD6C0"/>
<path d="M46.2106 61.2857C47.228 61.2857 48.0527 60.3263 48.0527 59.1429C48.0527 57.9594 47.228 57 46.2106 57C45.1933 57 44.3685 57.9594 44.3685 59.1429C44.3685 60.3263 45.1933 61.2857 46.2106 61.2857Z" fill="#FFD6C0"/>
<path d="M38.4737 63.4286C39.2876 63.4286 39.9474 62.6291 39.9474 61.6429C39.9474 60.6567 39.2876 59.8572 38.4737 59.8572C37.6598 59.8572 37 60.6567 37 61.6429C37 62.6291 37.6598 63.4286 38.4737 63.4286Z" fill="#FFD6C0"/>
<path d="M49.5264 63.4286C50.3403 63.4286 51.0001 62.6291 51.0001 61.6429C51.0001 60.6567 50.3403 59.8572 49.5264 59.8572C48.7125 59.8572 48.0527 60.6567 48.0527 61.6429C48.0527 62.6291 48.7125 63.4286 49.5264 63.4286Z" fill="#FFD6C0"/>
<path d="M73.4297 45L71.7891 76.9219L61.8984 77.4375L60.9609 45.6562L73.4297 45ZM103.238 66.1406C103.238 67.9062 103.214 69.6562 103.167 71.3906C103.136 73.1094 103.081 74.8438 103.003 76.5938L89.5031 76.3594C89.9719 73.5938 90.3781 70.8359 90.7219 68.0859C91.0656 65.3203 91.2375 62.5312 91.2375 59.7188C91.2375 59.5156 91.2297 59.1875 91.2141 58.7344C91.1984 58.2812 91.1672 57.7734 91.1203 57.2109C91.0734 56.6328 91.0031 56.0469 90.9094 55.4531C90.8313 54.8438 90.7141 54.2891 90.5578 53.7891C90.4172 53.2891 90.2375 52.8828 90.0188 52.5703C89.8156 52.2422 89.5656 52.0781 89.2688 52.0781C88.7375 52.0781 88.2844 52.2344 87.9094 52.5469C87.55 52.8594 87.2453 53.2656 86.9953 53.7656C86.7609 54.25 86.5734 54.7969 86.4328 55.4062C86.2922 56.0156 86.1828 56.625 86.1047 57.2344C86.0422 57.8438 85.9953 58.4219 85.9641 58.9688C85.9484 59.5 85.9406 59.9375 85.9406 60.2812C85.8625 63.0469 85.8 65.7969 85.7531 68.5312C85.7063 71.25 85.6438 74 85.5656 76.7812L73.6125 77.2969C73.925 71.7812 74.2219 66.2969 74.5031 60.8438C74.8 55.3906 75.0344 49.9062 75.2063 44.3906L86.2688 43.8281L86.175 47.5781C86.6125 47.0469 87.0813 46.5469 87.5813 46.0781C88.0969 45.6094 88.6438 45.2109 89.2219 44.8828C89.8 44.5391 90.4094 44.2734 91.05 44.0859C91.7063 43.8828 92.3938 43.7812 93.1125 43.7812C94.4406 43.7812 95.6047 44 96.6047 44.4375C97.6047 44.875 98.4641 45.4688 99.1828 46.2188C99.9016 46.9688 100.503 47.8594 100.988 48.8906C101.472 49.9062 101.863 50.9922 102.159 52.1484C102.456 53.3047 102.683 54.5156 102.839 55.7812C102.995 57.0312 103.097 58.2656 103.144 59.4844C103.206 60.7031 103.238 61.8828 103.238 63.0234C103.238 64.1641 103.238 65.2031 103.238 66.1406ZM129.084 44.9531L128.85 54.8906L121.866 55.1719L121.022 76.9219L111.131 77.4375L110.241 55.6875L103.256 56.0625L103.537 45L129.084 44.9531Z" fill="#333333"/>
</g>
<defs>
<clipPath id="clip0_128_64">
<rect width="130" height="84" fill="white"/>
</clipPath>
</defs>
</svg>
