<svg width="120" height="86" viewBox="0 0 120 86" fill="none" xmlns="http://www.w3.org/2000/svg">
<g clip-path="url(#clip0_26_4)">
<path d="M3.03409 41V6.09091H16.8068C19.4545 6.09091 21.7102 6.59659 23.5739 7.60795C25.4375 8.60795 26.858 10 27.8352 11.7841C28.8239 13.5568 29.3182 15.6023 29.3182 17.9205C29.3182 20.2386 28.8182 22.2841 27.8182 24.0568C26.8182 25.8295 25.3693 27.2102 23.4716 28.1989C21.5852 29.1875 19.3011 29.6818 16.6193 29.6818H7.84091V23.767H15.4261C16.8466 23.767 18.017 23.5227 18.9375 23.0341C19.8693 22.5341 20.5625 21.8466 21.017 20.9716C21.483 20.0852 21.7159 19.0682 21.7159 17.9205C21.7159 16.7614 21.483 15.75 21.017 14.8864C20.5625 14.0114 19.8693 13.3352 18.9375 12.858C18.0057 12.3693 16.8239 12.125 15.392 12.125H10.4148V41H3.03409ZM39.5386 41.4943C37.8682 41.4943 36.3795 41.2045 35.0727 40.625C33.7659 40.0341 32.7318 39.1648 31.9705 38.017C31.2205 36.858 30.8455 35.4148 30.8455 33.6875C30.8455 32.233 31.1125 31.0114 31.6466 30.0227C32.1807 29.0341 32.908 28.2386 33.8284 27.6364C34.7489 27.0341 35.7943 26.5795 36.9648 26.2727C38.1466 25.9659 39.3852 25.75 40.6807 25.625C42.2034 25.4659 43.4307 25.3182 44.3625 25.1818C45.2943 25.0341 45.9705 24.8182 46.3909 24.5341C46.8114 24.25 47.0216 23.8295 47.0216 23.2727V23.1705C47.0216 22.0909 46.6807 21.2557 45.9989 20.6648C45.3284 20.0739 44.3739 19.7784 43.1352 19.7784C41.8284 19.7784 40.7886 20.0682 40.0159 20.6477C39.2432 21.2159 38.7318 21.9318 38.4818 22.7955L31.7659 22.25C32.1068 20.6591 32.7773 19.2841 33.7773 18.125C34.7773 16.9545 36.067 16.0568 37.6466 15.4318C39.2375 14.7955 41.0784 14.4773 43.1693 14.4773C44.6239 14.4773 46.0159 14.6477 47.3455 14.9886C48.6864 15.3295 49.8739 15.858 50.908 16.5739C51.9534 17.2898 52.7773 18.2102 53.3795 19.3352C53.9818 20.4489 54.283 21.7841 54.283 23.3409V41H47.3966V37.3693H47.192C46.7716 38.1875 46.2091 38.9091 45.5045 39.5341C44.8 40.1477 43.9534 40.6307 42.9648 40.983C41.9761 41.3239 40.8341 41.4943 39.5386 41.4943ZM41.6182 36.483C42.6864 36.483 43.6295 36.2727 44.4477 35.8523C45.2659 35.4205 45.908 34.8409 46.3739 34.1136C46.8398 33.3864 47.0727 32.5625 47.0727 31.642V28.8636C46.8455 29.0114 46.533 29.1477 46.1352 29.2727C45.7489 29.3864 45.3114 29.4943 44.8227 29.5966C44.3341 29.6875 43.8455 29.7727 43.3568 29.8523C42.8682 29.9205 42.425 29.983 42.0273 30.0398C41.175 30.1648 40.4307 30.3636 39.7943 30.6364C39.158 30.9091 38.6636 31.2784 38.3114 31.7443C37.9591 32.1989 37.783 32.767 37.783 33.4489C37.783 34.4375 38.1409 35.1932 38.8568 35.7159C39.5841 36.2273 40.5045 36.483 41.6182 36.483ZM63.8812 41L56.7562 14.8182H64.1028L68.1597 32.4091H68.3983L72.6256 14.8182H79.8358L84.1312 32.3068H84.3528L88.3415 14.8182H95.671L88.5631 41H80.8756L76.3756 24.5341H76.0517L71.5517 41H63.8812Z" fill="#333333"/>
<path d="M3.03409 79V44.0909H16.8068C19.4545 44.0909 21.7102 44.5966 23.5739 45.608C25.4375 46.608 26.858 48 27.8352 49.7841C28.8239 51.5568 29.3182 53.6023 29.3182 55.9205C29.3182 58.2386 28.8182 60.2841 27.8182 62.0568C26.8182 63.8295 25.3693 65.2102 23.4716 66.1989C21.5852 67.1875 19.3011 67.6818 16.6193 67.6818H7.84091V61.767H15.4261C16.8466 61.767 18.017 61.5227 18.9375 61.0341C19.8693 60.5341 20.5625 59.8466 21.017 58.9716C21.483 58.0852 21.7159 57.0682 21.7159 55.9205C21.7159 54.7614 21.483 53.75 21.017 52.8864C20.5625 52.0114 19.8693 51.3352 18.9375 50.858C18.0057 50.3693 16.8239 50.125 15.392 50.125H10.4148V79H3.03409Z" fill="#333333"/>
<path d="M46 78C54.2843 78 61 71.2843 61 63C61 54.7157 54.2843 48 46 48C37.7157 48 31 54.7157 31 63C31 71.2843 37.7157 78 46 78Z" fill="#333333"/>
<path d="M46.0004 68C48.2386 68 50.053 66.7208 50.053 65.1428C50.053 63.5649 48.2386 62.2857 46.0004 62.2857C43.7622 62.2857 41.9478 63.5649 41.9478 65.1428C41.9478 66.7208 43.7622 68 46.0004 68Z" fill="#FFD6C0"/>
<path d="M43.7896 62.2857C44.807 62.2857 45.6317 61.3263 45.6317 60.1429C45.6317 58.9594 44.807 58 43.7896 58C42.7722 58 41.9475 58.9594 41.9475 60.1429C41.9475 61.3263 42.7722 62.2857 43.7896 62.2857Z" fill="#FFD6C0"/>
<path d="M48.2106 62.2857C49.228 62.2857 50.0527 61.3263 50.0527 60.1429C50.0527 58.9594 49.228 58 48.2106 58C47.1933 58 46.3685 58.9594 46.3685 60.1429C46.3685 61.3263 47.1933 62.2857 48.2106 62.2857Z" fill="#FFD6C0"/>
<path d="M40.4737 64.4286C41.2876 64.4286 41.9474 63.6291 41.9474 62.6429C41.9474 61.6567 41.2876 60.8572 40.4737 60.8572C39.6598 60.8572 39 61.6567 39 62.6429C39 63.6291 39.6598 64.4286 40.4737 64.4286Z" fill="#FFD6C0"/>
<path d="M51.5264 64.4286C52.3403 64.4286 53.0001 63.6291 53.0001 62.6429C53.0001 61.6567 52.3403 60.8572 51.5264 60.8572C50.7125 60.8572 50.0527 61.6567 50.0527 62.6429C50.0527 63.6291 50.7125 64.4286 51.5264 64.4286Z" fill="#FFD6C0"/>
<path d="M62.8977 79V52.8182H70.1591V79H62.8977ZM66.5455 49.4432C65.4659 49.4432 64.5398 49.0852 63.767 48.3693C63.0057 47.642 62.625 46.7727 62.625 45.7614C62.625 44.7614 63.0057 43.9034 63.767 43.1875C64.5398 42.4602 65.4659 42.0966 66.5455 42.0966C67.625 42.0966 68.5455 42.4602 69.3068 43.1875C70.0795 43.9034 70.4659 44.7614 70.4659 45.7614C70.4659 46.7727 70.0795 47.642 69.3068 48.3693C68.5455 49.0852 67.625 49.4432 66.5455 49.4432ZM82.0372 63.8636V79H74.7759V52.8182H81.6963V57.4375H82.0031C82.5827 55.9148 83.5543 54.7102 84.9179 53.8239C86.2815 52.9261 87.9349 52.4773 89.8781 52.4773C91.6963 52.4773 93.2815 52.875 94.6338 53.6705C95.9861 54.4659 97.0372 55.6023 97.7872 57.0795C98.5372 58.5455 98.9122 60.2955 98.9122 62.3295V79H91.6509V63.625C91.6622 62.0227 91.2531 60.7727 90.4236 59.875C89.594 58.9659 88.452 58.5114 86.9974 58.5114C86.0202 58.5114 85.1565 58.7216 84.4065 59.142C83.6679 59.5625 83.0884 60.1761 82.6679 60.983C82.2588 61.7784 82.0486 62.7386 82.0372 63.8636ZM117.361 52.8182V58.2727H101.594V52.8182H117.361ZM105.174 46.5455H112.435V70.9545C112.435 71.625 112.537 72.1477 112.742 72.5227C112.947 72.8864 113.231 73.142 113.594 73.2898C113.969 73.4375 114.401 73.5114 114.89 73.5114C115.231 73.5114 115.572 73.483 115.912 73.4261C116.253 73.358 116.515 73.3068 116.697 73.2727L117.839 78.6761C117.475 78.7898 116.964 78.9205 116.305 79.0682C115.645 79.2273 114.844 79.3239 113.901 79.358C112.151 79.4261 110.617 79.1932 109.299 78.6591C107.992 78.125 106.975 77.2955 106.248 76.1705C105.52 75.0455 105.162 73.625 105.174 71.9091V46.5455Z" fill="#333333"/>
</g>
<defs>
<clipPath id="clip0_26_4">
<rect width="120" height="86" fill="white"/>
</clipPath>
</defs>
</svg>
