<svg width="32" height="32" viewBox="0 0 32 32" fill="none" xmlns="http://www.w3.org/2000/svg">
<path d="M16 31C24.2843 31 31 24.2843 31 16C31 7.71573 24.2843 1 16 1C7.71573 1 1 7.71573 1 16C1 24.2843 7.71573 31 16 31Z" fill="#333333"/>
<path d="M16.0004 20.9999C18.2386 20.9999 20.053 19.7207 20.053 18.1428C20.053 16.5648 18.2386 15.2856 16.0004 15.2856C13.7622 15.2856 11.9478 16.5648 11.9478 18.1428C11.9478 19.7207 13.7622 20.9999 16.0004 20.9999Z" fill="#FFD6C0"/>
<path d="M13.7896 15.2857C14.807 15.2857 15.6317 14.3263 15.6317 13.1429C15.6317 11.9594 14.807 11 13.7896 11C12.7722 11 11.9475 11.9594 11.9475 13.1429C11.9475 14.3263 12.7722 15.2857 13.7896 15.2857Z" fill="#FFD6C0"/>
<path d="M18.2108 15.2857C19.2281 15.2857 20.0529 14.3263 20.0529 13.1429C20.0529 11.9594 19.2281 11 18.2108 11C17.1934 11 16.3687 11.9594 16.3687 13.1429C16.3687 14.3263 17.1934 15.2857 18.2108 15.2857Z" fill="#FFD6C0"/>
<path d="M10.4737 17.4286C11.2876 17.4286 11.9474 16.6291 11.9474 15.6429C11.9474 14.6567 11.2876 13.8572 10.4737 13.8572C9.65979 13.8572 9 14.6567 9 15.6429C9 16.6291 9.65979 17.4286 10.4737 17.4286Z" fill="#FFD6C0"/>
<path d="M21.5264 17.4286C22.3403 17.4286 23.0001 16.6291 23.0001 15.6429C23.0001 14.6567 22.3403 13.8572 21.5264 13.8572C20.7125 13.8572 20.0527 14.6567 20.0527 15.6429C20.0527 16.6291 20.7125 17.4286 21.5264 17.4286Z" fill="#FFD6C0"/>
</svg>
