<svg width="217" height="48" viewBox="0 0 217 48" fill="none" xmlns="http://www.w3.org/2000/svg">
<g clip-path="url(#clip0_26_4)">
<path d="M3.03409 41V6.09091H16.8068C19.4545 6.09091 21.7102 6.59659 23.5739 7.60795C25.4375 8.60795 26.858 10 27.8352 11.7841C28.8239 13.5568 29.3182 15.6023 29.3182 17.9205C29.3182 20.2386 28.8182 22.2841 27.8182 24.0568C26.8182 25.8295 25.3693 27.2102 23.4716 28.1989C21.5852 29.1875 19.3011 29.6818 16.6193 29.6818H7.84091V23.767H15.4261C16.8466 23.767 18.017 23.5227 18.9375 23.0341C19.8693 22.5341 20.5625 21.8466 21.017 20.9716C21.483 20.0852 21.7159 19.0682 21.7159 17.9205C21.7159 16.7614 21.483 15.75 21.017 14.8864C20.5625 14.0114 19.8693 13.3352 18.9375 12.858C18.0057 12.3693 16.8239 12.125 15.392 12.125H10.4148V41H3.03409ZM39.5386 41.4943C37.8682 41.4943 36.3795 41.2045 35.0727 40.625C33.7659 40.0341 32.7318 39.1648 31.9705 38.017C31.2205 36.858 30.8455 35.4148 30.8455 33.6875C30.8455 32.233 31.1125 31.0114 31.6466 30.0227C32.1807 29.0341 32.908 28.2386 33.8284 27.6364C34.7489 27.0341 35.7943 26.5795 36.9648 26.2727C38.1466 25.9659 39.3852 25.75 40.6807 25.625C42.2034 25.4659 43.4307 25.3182 44.3625 25.1818C45.2943 25.0341 45.9705 24.8182 46.3909 24.5341C46.8114 24.25 47.0216 23.8295 47.0216 23.2727V23.1705C47.0216 22.0909 46.6807 21.2557 45.9989 20.6648C45.3284 20.0739 44.3739 19.7784 43.1352 19.7784C41.8284 19.7784 40.7886 20.0682 40.0159 20.6477C39.2432 21.2159 38.7318 21.9318 38.4818 22.7955L31.7659 22.25C32.1068 20.6591 32.7773 19.2841 33.7773 18.125C34.7773 16.9545 36.067 16.0568 37.6466 15.4318C39.2375 14.7955 41.0784 14.4773 43.1693 14.4773C44.6239 14.4773 46.0159 14.6477 47.3455 14.9886C48.6864 15.3295 49.8739 15.858 50.908 16.5739C51.9534 17.2898 52.7773 18.2102 53.3795 19.3352C53.9818 20.4489 54.283 21.7841 54.283 23.3409V41H47.3966V37.3693H47.192C46.7716 38.1875 46.2091 38.9091 45.5045 39.5341C44.8 40.1477 43.9534 40.6307 42.9648 40.983C41.9761 41.3239 40.8341 41.4943 39.5386 41.4943ZM41.6182 36.483C42.6864 36.483 43.6295 36.2727 44.4477 35.8523C45.2659 35.4205 45.908 34.8409 46.3739 34.1136C46.8398 33.3864 47.0727 32.5625 47.0727 31.642V28.8636C46.8455 29.0114 46.533 29.1477 46.1352 29.2727C45.7489 29.3864 45.3114 29.4943 44.8227 29.5966C44.3341 29.6875 43.8455 29.7727 43.3568 29.8523C42.8682 29.9205 42.425 29.983 42.0273 30.0398C41.175 30.1648 40.4307 30.3636 39.7943 30.6364C39.158 30.9091 38.6636 31.2784 38.3114 31.7443C37.9591 32.1989 37.783 32.767 37.783 33.4489C37.783 34.4375 38.1409 35.1932 38.8568 35.7159C39.5841 36.2273 40.5045 36.483 41.6182 36.483ZM63.8812 41L56.7562 14.8182H64.1028L68.1597 32.4091H68.3983L72.6256 14.8182H79.8358L84.1312 32.3068H84.3528L88.3415 14.8182H95.671L88.5631 41H80.8756L76.3756 24.5341H76.0517L71.5517 41H63.8812Z" fill="#333333"/>
<path d="M100.034 41V6.09091H113.807C116.455 6.09091 118.71 6.59659 120.574 7.60795C122.438 8.60795 123.858 10 124.835 11.7841C125.824 13.5568 126.318 15.6023 126.318 17.9205C126.318 20.2386 125.818 22.2841 124.818 24.0568C123.818 25.8295 122.369 27.2102 120.472 28.1989C118.585 29.1875 116.301 29.6818 113.619 29.6818H104.841V23.767H112.426C113.847 23.767 115.017 23.5227 115.938 23.0341C116.869 22.5341 117.563 21.8466 118.017 20.9716C118.483 20.0852 118.716 19.0682 118.716 17.9205C118.716 16.7614 118.483 15.75 118.017 14.8864C117.563 14.0114 116.869 13.3352 115.938 12.858C115.006 12.3693 113.824 12.125 112.392 12.125H107.415V41H100.034Z" fill="#333333"/>
<path d="M143 40C151.284 40 158 33.2843 158 25C158 16.7157 151.284 10 143 10C134.716 10 128 16.7157 128 25C128 33.2843 134.716 40 143 40Z" fill="#333333"/>
<path d="M143 30C145.239 30 147.053 28.7208 147.053 27.1428C147.053 25.5649 145.239 24.2857 143 24.2857C140.762 24.2857 138.948 25.5649 138.948 27.1428C138.948 28.7208 140.762 30 143 30Z" fill="#FFD6C0"/>
<path d="M140.79 24.2857C141.807 24.2857 142.632 23.3263 142.632 22.1429C142.632 20.9594 141.807 20 140.79 20C139.772 20 138.948 20.9594 138.948 22.1429C138.948 23.3263 139.772 24.2857 140.79 24.2857Z" fill="#FFD6C0"/>
<path d="M145.211 24.2857C146.228 24.2857 147.053 23.3263 147.053 22.1429C147.053 20.9594 146.228 20 145.211 20C144.193 20 143.369 20.9594 143.369 22.1429C143.369 23.3263 144.193 24.2857 145.211 24.2857Z" fill="#FFD6C0"/>
<path d="M137.474 26.4286C138.288 26.4286 138.947 25.6291 138.947 24.6429C138.947 23.6567 138.288 22.8572 137.474 22.8572C136.66 22.8572 136 23.6567 136 24.6429C136 25.6291 136.66 26.4286 137.474 26.4286Z" fill="#FFD6C0"/>
<path d="M148.526 26.4286C149.34 26.4286 150 25.6291 150 24.6429C150 23.6567 149.34 22.8572 148.526 22.8572C147.713 22.8572 147.053 23.6567 147.053 24.6429C147.053 25.6291 147.713 26.4286 148.526 26.4286Z" fill="#FFD6C0"/>
<path d="M159.898 41V14.8182H167.159V41H159.898ZM163.545 11.4432C162.466 11.4432 161.54 11.0852 160.767 10.3693C160.006 9.64204 159.625 8.77273 159.625 7.76136C159.625 6.76136 160.006 5.90341 160.767 5.1875C161.54 4.46023 162.466 4.09659 163.545 4.09659C164.625 4.09659 165.545 4.46023 166.307 5.1875C167.08 5.90341 167.466 6.76136 167.466 7.76136C167.466 8.77273 167.08 9.64204 166.307 10.3693C165.545 11.0852 164.625 11.4432 163.545 11.4432ZM179.037 25.8636V41H171.776V14.8182H178.696V19.4375H179.003C179.583 17.9148 180.554 16.7102 181.918 15.8239C183.282 14.9261 184.935 14.4773 186.878 14.4773C188.696 14.4773 190.282 14.875 191.634 15.6705C192.986 16.4659 194.037 17.6023 194.787 19.0795C195.537 20.5455 195.912 22.2955 195.912 24.3295V41H188.651V25.625C188.662 24.0227 188.253 22.7727 187.424 21.875C186.594 20.9659 185.452 20.5114 183.997 20.5114C183.02 20.5114 182.157 20.7216 181.407 21.142C180.668 21.5625 180.088 22.1761 179.668 22.983C179.259 23.7784 179.049 24.7386 179.037 25.8636ZM214.361 14.8182V20.2727H198.594V14.8182H214.361ZM202.174 8.54545H209.435V32.9545C209.435 33.625 209.537 34.1477 209.742 34.5227C209.947 34.8864 210.231 35.142 210.594 35.2898C210.969 35.4375 211.401 35.5114 211.89 35.5114C212.231 35.5114 212.572 35.483 212.912 35.4261C213.253 35.358 213.515 35.3068 213.697 35.2727L214.839 40.6761C214.475 40.7898 213.964 40.9205 213.305 41.0682C212.645 41.2273 211.844 41.3239 210.901 41.358C209.151 41.4261 207.617 41.1932 206.299 40.6591C204.992 40.125 203.975 39.2955 203.248 38.1705C202.52 37.0455 202.162 35.625 202.174 33.9091V8.54545Z" fill="#333333"/>
</g>
<defs>
<clipPath id="clip0_26_4">
<rect width="217" height="48" fill="white"/>
</clipPath>
</defs>
</svg>
