<svg width="229" height="48" viewBox="0 0 229 48" fill="none" xmlns="http://www.w3.org/2000/svg">
<g clip-path="url(#clip0_124_51)">
<path d="M28.5 17.4531C28.5 18.9688 28.2734 20.3125 27.8203 21.4844C27.3672 22.6562 26.7422 23.6797 25.9453 24.5547C25.1641 25.4297 24.2422 26.1719 23.1797 26.7812C22.1172 27.3906 20.9766 27.8906 19.7578 28.2812C18.5547 28.6562 17.3047 28.9375 16.0078 29.125C14.7109 29.2969 13.4375 29.3906 12.1875 29.4062V40.3281H1.26562C1.26562 36.75 1.27344 33.1875 1.28906 29.6406C1.30469 26.0938 1.32812 22.5156 1.35938 18.9062C1.39062 17 1.39844 15.0937 1.38281 13.1875C1.36719 11.2813 1.40625 9.35938 1.5 7.42188C3.5 6.82813 5.5 6.38281 7.5 6.08594C9.5 5.78906 11.5625 5.64062 13.6875 5.64062C14.8906 5.64062 16.0938 5.74219 17.2969 5.94531C18.5 6.13281 19.6484 6.4375 20.7422 6.85938C21.8516 7.28125 22.875 7.8125 23.8125 8.45312C24.7656 9.07813 25.5859 9.82813 26.2734 10.7031C26.9609 11.5781 27.5 12.5781 27.8906 13.7031C28.2969 14.8125 28.5 16.0625 28.5 17.4531ZM18.0938 18.25C18.0938 17.2344 17.7812 16.4453 17.1562 15.8828C16.5469 15.3047 15.75 15.0156 14.7656 15.0156C14.4375 15.0156 14.0938 15.0469 13.7344 15.1094C13.3906 15.1562 13.0625 15.2188 12.75 15.2969L12.4688 22.1406C12.6875 22.1719 12.8984 22.1875 13.1016 22.1875C13.3047 22.1875 13.5156 22.1875 13.7344 22.1875C14.2969 22.1875 14.8359 22.0938 15.3516 21.9062C15.8828 21.7188 16.3516 21.4531 16.7578 21.1094C17.1641 20.75 17.4844 20.3359 17.7188 19.8672C17.9688 19.3828 18.0938 18.8438 18.0938 18.25ZM55.6594 37.9844L44.0344 39.4844L42.6281 34.1875H37.2844L36.1125 39.4844L24.1594 38.3125L33.4875 7.09375L46.5187 6.4375L55.6594 37.9844ZM41.7844 27.0156L40.0031 18.8594L38.2687 27.0156H41.7844ZM95.5922 7.46875L90.1078 39.0156L76.7953 39.2969L73.9359 23.4062L71.0766 38.0781L57.7641 38.5469L52.2328 8.40625L63.8578 7.375L66.2016 25.8906L69.3422 8.78125H78.4828L82.1391 26.125L84.0141 6.4375L95.5922 7.46875Z" fill="#333333"/>
<path d="M127.5 17.4531C127.5 18.9688 127.273 20.3125 126.82 21.4844C126.367 22.6562 125.742 23.6797 124.945 24.5547C124.164 25.4297 123.242 26.1719 122.18 26.7812C121.117 27.3906 119.977 27.8906 118.758 28.2812C117.555 28.6562 116.305 28.9375 115.008 29.125C113.711 29.2969 112.438 29.3906 111.188 29.4062V40.3281H100.266C100.266 36.75 100.273 33.1875 100.289 29.6406C100.305 26.0938 100.328 22.5156 100.359 18.9062C100.391 17 100.398 15.0937 100.383 13.1875C100.367 11.2813 100.406 9.35938 100.5 7.42188C102.5 6.82813 104.5 6.38281 106.5 6.08594C108.5 5.78906 110.562 5.64062 112.688 5.64062C113.891 5.64062 115.094 5.74219 116.297 5.94531C117.5 6.13281 118.648 6.4375 119.742 6.85938C120.852 7.28125 121.875 7.8125 122.812 8.45312C123.766 9.07813 124.586 9.82813 125.273 10.7031C125.961 11.5781 126.5 12.5781 126.891 13.7031C127.297 14.8125 127.5 16.0625 127.5 17.4531ZM117.094 18.25C117.094 17.2344 116.781 16.4453 116.156 15.8828C115.547 15.3047 114.75 15.0156 113.766 15.0156C113.438 15.0156 113.094 15.0469 112.734 15.1094C112.391 15.1562 112.062 15.2188 111.75 15.2969L111.469 22.1406C111.688 22.1719 111.898 22.1875 112.102 22.1875C112.305 22.1875 112.516 22.1875 112.734 22.1875C113.297 22.1875 113.836 22.0938 114.352 21.9062C114.883 21.7188 115.352 21.4531 115.758 21.1094C116.164 20.75 116.484 20.3359 116.719 19.8672C116.969 19.3828 117.094 18.8438 117.094 18.25Z" fill="#333333"/>
<path d="M143 40C151.284 40 158 33.2843 158 25C158 16.7157 151.284 10 143 10C134.716 10 128 16.7157 128 25C128 33.2843 134.716 40 143 40Z" fill="#333333"/>
<path d="M143 30C145.239 30 147.053 28.7208 147.053 27.1429C147.053 25.5649 145.239 24.2857 143 24.2857C140.762 24.2857 138.948 25.5649 138.948 27.1429C138.948 28.7208 140.762 30 143 30Z" fill="#FFD6C0"/>
<path d="M140.79 24.2857C141.807 24.2857 142.632 23.3263 142.632 22.1429C142.632 20.9594 141.807 20 140.79 20C139.772 20 138.948 20.9594 138.948 22.1429C138.948 23.3263 139.772 24.2857 140.79 24.2857Z" fill="#FFD6C0"/>
<path d="M145.211 24.2857C146.228 24.2857 147.053 23.3263 147.053 22.1429C147.053 20.9594 146.228 20 145.211 20C144.193 20 143.369 20.9594 143.369 22.1429C143.369 23.3263 144.193 24.2857 145.211 24.2857Z" fill="#FFD6C0"/>
<path d="M137.474 26.4286C138.288 26.4286 138.947 25.6291 138.947 24.6429C138.947 23.6567 138.288 22.8572 137.474 22.8572C136.66 22.8572 136 23.6567 136 24.6429C136 25.6291 136.66 26.4286 137.474 26.4286Z" fill="#FFD6C0"/>
<path d="M148.526 26.4286C149.34 26.4286 150 25.6291 150 24.6429C150 23.6567 149.34 22.8572 148.526 22.8572C147.713 22.8572 147.053 23.6567 147.053 24.6429C147.053 25.6291 147.713 26.4286 148.526 26.4286Z" fill="#FFD6C0"/>
<path d="M172.43 8L170.789 39.9219L160.898 40.4375L159.961 8.65625L172.43 8ZM202.238 29.1406C202.238 30.9062 202.214 32.6562 202.167 34.3906C202.136 36.1094 202.081 37.8438 202.003 39.5938L188.503 39.3594C188.972 36.5938 189.378 33.8359 189.722 31.0859C190.066 28.3203 190.238 25.5312 190.238 22.7188C190.238 22.5156 190.23 22.1875 190.214 21.7344C190.198 21.2812 190.167 20.7734 190.12 20.2109C190.073 19.6328 190.003 19.0469 189.909 18.4531C189.831 17.8438 189.714 17.2891 189.558 16.7891C189.417 16.2891 189.238 15.8828 189.019 15.5703C188.816 15.2422 188.566 15.0781 188.269 15.0781C187.738 15.0781 187.284 15.2344 186.909 15.5469C186.55 15.8594 186.245 16.2656 185.995 16.7656C185.761 17.25 185.573 17.7969 185.433 18.4062C185.292 19.0156 185.183 19.625 185.105 20.2344C185.042 20.8438 184.995 21.4219 184.964 21.9688C184.948 22.5 184.941 22.9375 184.941 23.2812C184.863 26.0469 184.8 28.7969 184.753 31.5312C184.706 34.25 184.644 37 184.566 39.7812L172.613 40.2969C172.925 34.7812 173.222 29.2969 173.503 23.8438C173.8 18.3906 174.034 12.9062 174.206 7.39062L185.269 6.82812L185.175 10.5781C185.613 10.0469 186.081 9.54688 186.581 9.07812C187.097 8.60938 187.644 8.21094 188.222 7.88281C188.8 7.53906 189.409 7.27344 190.05 7.08594C190.706 6.88281 191.394 6.78125 192.113 6.78125C193.441 6.78125 194.605 7 195.605 7.4375C196.605 7.875 197.464 8.46875 198.183 9.21875C198.902 9.96875 199.503 10.8594 199.988 11.8906C200.472 12.9062 200.863 13.9922 201.159 15.1484C201.456 16.3047 201.683 17.5156 201.839 18.7812C201.995 20.0312 202.097 21.2656 202.144 22.4844C202.206 23.7031 202.238 24.8828 202.238 26.0234C202.238 27.1641 202.238 28.2031 202.238 29.1406ZM228.084 7.95312L227.85 17.8906L220.866 18.1719L220.022 39.9219L210.131 40.4375L209.241 18.6875L202.256 19.0625L202.537 8L228.084 7.95312Z" fill="#333333"/>
</g>
<defs>
<clipPath id="clip0_124_51">
<rect width="229" height="48" fill="white"/>
</clipPath>
</defs>
</svg>
